<svg version="1.1" viewBox="0.0 0.0 276.501312335958 195.501312335958" fill="none" stroke="none" stroke-linecap="square" stroke-miterlimit="10" xmlns:xlink="http://www.w3.org/1999/xlink" xmlns="http://www.w3.org/2000/svg"><clipPath id="p.0"><path d="m0 0l276.5013 0l0 195.50131l-276.5013 0l0 -195.50131z" clip-rule="nonzero"/></clipPath><g clip-path="url(#p.0)"><path fill="#000000" fill-opacity="0.0" d="m0 0l276.5013 0l0 195.50131l-276.5013 0z" fill-rule="evenodd"/><path fill="#000000" fill-opacity="0.0" d="m135.7664 107.179855l0 -27.181107l32.0 0l0 27.181107z" fill-rule="evenodd"/><path fill="#000000" fill-opacity="0.0" d="m151.86089 107.17993l0 -11.622047" fill-rule="evenodd"/><path stroke="#000000" stroke-width="2.0" stroke-linejoin="round" stroke-linecap="butt" d="m151.86089 107.17993l0 -11.622047" fill-rule="evenodd"/><path fill="#000000" fill-opacity="0.0" d="m151.86089 80.01458l0 10.803146" fill-rule="evenodd"/><path stroke="#000000" stroke-width="2.0" stroke-linejoin="round" stroke-linecap="butt" d="m151.86089 80.01458l0 10.803146" fill-rule="evenodd"/><path fill="#000000" fill-opacity="0.0" d="m143.7664 96.086754l16.0 0" fill-rule="evenodd"/><path stroke="#000000" stroke-width="2.0" stroke-linejoin="round" stroke-linecap="butt" d="m143.7664 96.086754l16.0 0" fill-rule="evenodd"/><path fill="#000000" fill-opacity="0.0" d="m143.7664 91.05526l16.0 0" fill-rule="evenodd"/><path stroke="#000000" stroke-width="2.0" stroke-linejoin="round" stroke-linecap="butt" d="m143.7664 91.05526l16.0 0" fill-rule="evenodd"/><path fill="#000000" fill-opacity="0.0" d="m61.10635 5.8146806l34.017605 0l0 55.1264l-34.017605 0z" fill-rule="evenodd"/><path fill="#000000" fill-opacity="0.0" d="m61.106503 33.220333l8.504398 -0.32554626" fill-rule="evenodd"/><path stroke="#000000" stroke-width="2.0" stroke-linejoin="round" stroke-linecap="butt" d="m61.106503 33.220333l8.504398 -0.32554626" fill-rule="evenodd"/><path fill="#000000" fill-opacity="0.0" d="m95.123825 33.27336l-8.504402 0" fill-rule="evenodd"/><path stroke="#000000" stroke-width="2.0" stroke-linejoin="round" stroke-linecap="butt" d="m95.123825 33.27336l-8.504402 0" fill-rule="evenodd"/><path fill="#000000" fill-opacity="0.0" d="m69.6109 32.894787l0 0c0.016204834 -3.80439 1.2977524 -6.8569717 2.8628464 -6.81913c1.565094 0.037843704 2.8214111 3.1517868 2.8064728 6.9562073l-2.834671 -0.06574631z" fill-rule="evenodd"/><path fill="#000000" fill-opacity="0.0" d="m69.6109 32.894787l0 0c0.016204834 -3.80439 1.2977524 -6.8569717 2.8628464 -6.81913c1.565094 0.037843704 2.8214111 3.1517868 2.8064728 6.9562073" fill-rule="evenodd"/><path stroke="#000000" stroke-width="2.0" stroke-linejoin="round" stroke-linecap="butt" d="m69.6109 32.894787l0 0c0.016204834 -3.80439 1.2977524 -6.8569717 2.8628464 -6.81913c1.565094 0.037843704 2.8214111 3.1517868 2.8064728 6.9562073" fill-rule="evenodd"/><path fill="#000000" fill-opacity="0.0" d="m75.2805 33.136284l0 0c0.016204834 -3.804388 1.2977524 -6.856968 2.8628464 -6.819126c1.5650864 0.037841797 2.8214035 3.151785 2.8064728 6.9562035l-2.834671 -0.06574631z" fill-rule="evenodd"/><path fill="#000000" fill-opacity="0.0" d="m75.2805 33.136284l0 0c0.016204834 -3.804388 1.2977524 -6.856968 2.8628464 -6.819126c1.5650864 0.037841797 2.8214035 3.151785 2.8064728 6.9562035" fill-rule="evenodd"/><path stroke="#000000" stroke-width="2.0" stroke-linejoin="round" stroke-linecap="butt" d="m75.2805 33.136284l0 0c0.016204834 -3.804388 1.2977524 -6.856968 2.8628464 -6.819126c1.5650864 0.037841797 2.8214035 3.151785 2.8064728 6.9562035" fill-rule="evenodd"/><path fill="#000000" fill-opacity="0.0" d="m80.9501 33.136284l0 0c0.016204834 -3.804388 1.2977524 -6.856968 2.8628464 -6.819126c1.5650864 0.037841797 2.8214035 3.151785 2.8064728 6.9562035l-2.834671 -0.06574631z" fill-rule="evenodd"/><path fill="#000000" fill-opacity="0.0" d="m80.9501 33.136284l0 0c0.016204834 -3.804388 1.2977524 -6.856968 2.8628464 -6.819126c1.5650864 0.037841797 2.8214035 3.151785 2.8064728 6.9562035" fill-rule="evenodd"/><path stroke="#000000" stroke-width="2.0" stroke-linejoin="round" stroke-linecap="butt" d="m80.9501 33.136284l0 0c0.016204834 -3.804388 1.2977524 -6.856968 2.8628464 -6.819126c1.5650864 0.037841797 2.8214035 3.151785 2.8064728 6.9562035" fill-rule="evenodd"/><path fill="#000000" fill-opacity="0.0" d="m189.17352 108.41044l0 -29.64l21.260803 0l0 29.64z" fill-rule="evenodd"/><path fill="#000000" fill-opacity="0.0" d="m199.80392 108.41044l-0.06277466 -4.881653" fill-rule="evenodd"/><path stroke="#000000" stroke-width="2.0" stroke-linejoin="round" stroke-linecap="butt" d="m199.80392 108.41044l-0.06277466 -4.881653" fill-rule="evenodd"/><path fill="#000000" fill-opacity="0.0" d="m199.80392 78.77044l-0.06277466 4.9983444" fill-rule="evenodd"/><path stroke="#000000" stroke-width="2.0" stroke-linejoin="round" stroke-linecap="butt" d="m199.80392 78.77044l-0.06277466 4.9983444" fill-rule="evenodd"/><path fill="#000000" fill-opacity="0.0" d="m199.40694 103.679924l5.9848175 -3.1701584" fill-rule="evenodd"/><path stroke="#000000" stroke-width="2.0" stroke-linejoin="round" stroke-linecap="butt" d="m199.40694 103.679924l5.9848175 -3.1701584" fill-rule="evenodd"/><path fill="#000000" fill-opacity="0.0" d="m194.42307 85.92639l10.630386 2.9367676" fill-rule="evenodd"/><path stroke="#000000" stroke-width="2.0" stroke-linejoin="round" stroke-linecap="butt" d="m194.42307 85.92639l10.630386 2.9367676" fill-rule="evenodd"/><path fill="#000000" fill-opacity="0.0" d="m194.50676 85.77242l5.5663147 -2.236618" fill-rule="evenodd"/><path stroke="#000000" stroke-width="2.0" stroke-linejoin="round" stroke-linecap="butt" d="m194.50676 85.77242l5.5663147 -2.236618" fill-rule="evenodd"/><path fill="#000000" fill-opacity="0.0" d="m194.42307 98.27639l10.96521 2.3922043" fill-rule="evenodd"/><path stroke="#000000" stroke-width="2.0" stroke-linejoin="round" stroke-linecap="butt" d="m194.42307 98.27639l10.96521 2.3922043" fill-rule="evenodd"/><path fill="#000000" fill-opacity="0.0" d="m194.58871 98.12242l10.797821 -2.9367752" fill-rule="evenodd"/><path stroke="#000000" stroke-width="2.0" stroke-linejoin="round" stroke-linecap="butt" d="m194.58871 98.12242l10.797821 -2.9367752" fill-rule="evenodd"/><path fill="#000000" fill-opacity="0.0" d="m194.2975 92.122055l10.92337 3.0729141" fill-rule="evenodd"/><path stroke="#000000" stroke-width="2.0" stroke-linejoin="round" stroke-linecap="butt" d="m194.2975 92.122055l10.92337 3.0729141" fill-rule="evenodd"/><path fill="#000000" fill-opacity="0.0" d="m194.40501 91.799934l10.797821 -2.9367752" fill-rule="evenodd"/><path stroke="#000000" stroke-width="2.0" stroke-linejoin="round" stroke-linecap="butt" d="m194.40501 91.799934l10.797821 -2.9367752" fill-rule="evenodd"/><path fill="#000000" fill-opacity="0.0" d="m210.43307 82.07874l36.566925 0l0 23.02362l-36.566925 0z" fill-rule="evenodd"/><path fill="#000000" d="m212.60495 90.11305q0.21875 0 0.65625 -0.03125q0.484375 -0.03125 0.84375 -0.03125q1.28125 0 1.8125 0.421875q0.546875 0.40625 0.546875 1.25q0 0.78125 -0.4375 1.34375q-0.421875 0.5625 -1.1875 0.796875q0.171875 0.1875 0.34375 0.578125q0.1875 0.375 0.453125 0.984375q0.078125 0.140625 0.109375 0.21875q0.1875 0.421875 0.28125 0.609375q0.109375 0.171875 0.25 0.265625q0.15625 0.078125 0.421875 0.078125l-0.03125 0.453125l-1.546875 0q-0.109375 0 -0.234375 -0.21875q-0.109375 -0.21875 -0.296875 -0.734375l-0.09375 -0.21875q-0.296875 -0.8125 -0.515625 -1.28125q-0.203125 -0.484375 -0.359375 -0.578125l-0.546875 0l-0.359375 0l-0.296875 2.46875l0.84375 0.140625l-0.03125 0.421875l-2.765625 0l0.03125 -0.421875l0.625 -0.140625l0.765625 -5.796875l-0.65625 -0.109375l0.046875 -0.46875l1.328125 0zm0.1875 3.34375q0.171875 0.015625 0.84375 0.015625q0.671875 -0.015625 1.0625 -0.46875q0.40625 -0.453125 0.40625 -1.21875q0 -0.625 -0.3125 -0.90625q-0.3125 -0.296875 -0.96875 -0.296875q-0.34375 0 -0.640625 0.046875l-0.390625 2.828125z" fill-rule="nonzero"/><path fill="#000000" d="m218.03203 99.92555q-0.015625 0.03125 -0.015625 0.078125q0 0.15625 0.125 0.15625q0.046875 0 0.109375 -0.03125q0.078125 -0.03125 0.1875 -0.140625l0.078125 0.203125q-0.109375 0.140625 -0.296875 0.28125q-0.1875 0.140625 -0.5 0.140625q-0.234375 0 -0.390625 -0.09375q-0.140625 -0.09375 -0.140625 -0.296875q0 -0.03125 0.015625 -0.234375l0.546875 -3.96875l-0.390625 -0.125l0.046875 -0.234375l1.0625 -0.125l0.140625 0.078125l-0.578125 4.3125zm2.8341675 -2.90625q0.640625 0 0.984375 0.375q0.34375 0.375 0.34375 1.078125q0 0.578125 -0.234375 1.078125q-0.234375 0.484375 -0.671875 0.78125q-0.421875 0.296875 -0.984375 0.296875q-0.640625 0 -0.984375 -0.375q-0.328125 -0.390625 -0.328125 -1.09375q0 -0.59375 0.234375 -1.078125q0.234375 -0.484375 0.65625 -0.765625q0.421875 -0.296875 0.984375 -0.296875zm-0.109375 0.390625q-0.28125 0 -0.484375 0.265625q-0.203125 0.25 -0.296875 0.65625q-0.09375 0.390625 -0.09375 0.796875q0 0.59375 0.125 0.875q0.140625 0.265625 0.421875 0.265625q0.28125 0 0.46875 -0.25q0.203125 -0.265625 0.296875 -0.671875q0.09375 -0.40625 0.09375 -0.828125q0 -0.59375 -0.125 -0.84375q-0.125 -0.265625 -0.40625 -0.265625zm4.61586 2.5q0 0.03125 0 0.078125q0 0.171875 0.125 0.171875q0.09375 0 0.28125 -0.15625l0.078125 0.1875q-0.078125 0.125 -0.28125 0.28125q-0.203125 0.140625 -0.484375 0.140625q-0.203125 0 -0.328125 -0.09375q-0.125 -0.09375 -0.140625 -0.28125l0.015625 -0.109375q-0.171875 0.203125 -0.421875 0.34375q-0.25 0.140625 -0.546875 0.140625q-0.515625 0 -0.78125 -0.359375q-0.25 -0.359375 -0.25 -0.9375q0 -0.5625 0.234375 -1.09375q0.234375 -0.53125 0.6875 -0.859375q0.46875 -0.34375 1.109375 -0.34375q0.15625 0 0.34375 0.046875q0.1875 0.03125 0.328125 0.078125l0.4375 -0.125l-0.40625 2.890625zm-0.46875 -2.453125q-0.125 -0.046875 -0.3125 -0.046875q-0.375 0 -0.625 0.28125q-0.234375 0.28125 -0.359375 0.71875q-0.109375 0.421875 -0.109375 0.859375q0 0.421875 0.125 0.65625q0.125 0.21875 0.359375 0.21875q0.15625 0 0.3125 -0.109375q0.171875 -0.109375 0.296875 -0.25l0.3125 -2.328125zm4.181549 2.46875q0 0.015625 0 0.078125q0 0.15625 0.09375 0.15625q0.109375 0 0.28125 -0.15625l0.09375 0.203125q-0.34375 0.40625 -0.765625 0.40625q-0.21875 0 -0.34375 -0.109375q-0.109375 -0.109375 -0.125 -0.3125l0 -0.09375q-0.15625 0.203125 -0.421875 0.359375q-0.25 0.15625 -0.59375 0.15625q-0.515625 0 -0.78125 -0.359375q-0.25 -0.359375 -0.25 -0.9375q0 -0.578125 0.234375 -1.09375q0.234375 -0.53125 0.6875 -0.859375q0.453125 -0.34375 1.09375 -0.34375q0.1875 0 0.390625 0.046875l0.15625 -1.046875l-0.453125 -0.125l0.0625 -0.234375l1.109375 -0.125l0.15625 0.078125l-0.625 4.3125zm-0.46875 -2.4375q-0.15625 -0.078125 -0.390625 -0.078125q-0.390625 0 -0.640625 0.296875q-0.234375 0.28125 -0.34375 0.71875q-0.109375 0.421875 -0.109375 0.859375q0 0.40625 0.125 0.640625q0.125 0.21875 0.359375 0.21875q0.203125 0 0.375 -0.125q0.171875 -0.125 0.28125 -0.296875l0.34375 -2.234375z" fill-rule="nonzero"/><path fill="#000000" fill-opacity="0.0" d="m163.52493 82.07874l9.448822 0l0 23.02362l-9.448822 0z" fill-rule="evenodd"/><path fill="#000000" d="m168.13431 90.7068q-0.28125 -0.125 -0.65625 -0.125q-0.75 0 -1.25 0.53125q-0.5 0.53125 -0.734375 1.34375q-0.234375 0.796875 -0.21875 1.625q0.078125 2.40625 1.453125 2.40625q0.296875 0 0.59375 -0.078125q0.3125 -0.09375 0.515625 -0.296875q0.140625 -0.25 0.328125 -0.953125l0.765625 0l-0.1875 1.375q-0.890625 0.59375 -2.234375 0.59375q-0.9375 0 -1.53125 -0.40625q-0.59375 -0.421875 -0.875 -1.09375q-0.265625 -0.671875 -0.265625 -1.5q0 -1.25 0.484375 -2.171875q0.484375 -0.9375 1.34375 -1.421875q0.875 -0.5 2.0 -0.5q0.53125 0 0.84375 0.046875q0.3125 0.046875 0.5 0.109375q0.203125 0.046875 0.28125 0.0625l0.171875 0.046875l-0.28125 1.765625l-0.921875 0l-0.125 -1.359375z" fill-rule="nonzero"/><path fill="#000000" fill-opacity="0.0" d="m71.9895 5.813648l12.251968 0l0 18.267717l-12.251968 0z" fill-rule="evenodd"/><path fill="#000000" d="m75.6145 11.470005l-0.046875 0.46875l-0.828125 0.109375l-0.75 5.8125l1.90625 -0.0625l0.828125 -1.90625l0.6875 0.09375l-0.453125 2.421875l-4.96875 0l0.046875 -0.421875l0.640625 -0.140625l0.765625 -5.796875l-0.65625 -0.109375l0.046875 -0.46875l2.78125 0z" fill-rule="nonzero"/><path fill="#000000" d="m80.49869 21.282505q-0.15625 0.265625 -0.53125 0.484375q-0.359375 0.21875 -0.84375 0.21875q-0.4375 0 -0.734375 -0.1875q-0.28125 -0.203125 -0.421875 -0.5q-0.125 -0.3125 -0.125 -0.6875q0 -0.625 0.25 -1.125q0.25 -0.515625 0.6875 -0.8125q0.4375 -0.296875 0.96875 -0.296875q0.484375 0 0.71875 0.21875q0.234375 0.21875 0.234375 0.5625q0 0.453125 -0.328125 0.75q-0.328125 0.296875 -0.78125 0.453125q-0.453125 0.140625 -0.859375 0.15625q-0.015625 0.453125 0.140625 0.734375q0.171875 0.265625 0.484375 0.265625q0.546875 0 0.984375 -0.5l0.15625 0.265625zm-0.9375 -2.53125q-0.359375 0 -0.578125 0.453125q-0.203125 0.4375 -0.25 0.96875q0.25 0 0.515625 -0.125q0.265625 -0.125 0.453125 -0.328125q0.1875 -0.21875 0.1875 -0.5q0 -0.21875 -0.09375 -0.34375q-0.078125 -0.125 -0.234375 -0.125z" fill-rule="nonzero"/><path fill="#000000" fill-opacity="0.0" d="m265.12073 173.05511l0 -79.46456l-18.11023 0" fill-rule="evenodd"/><path stroke="#4a86e8" stroke-width="1.0" stroke-linejoin="round" stroke-linecap="butt" d="m265.12073 173.05511l0 -79.46456l-14.683151 0" fill-rule="evenodd"/><path fill="#4a86e8" stroke="#4a86e8" stroke-width="1.0" stroke-linecap="butt" d="m250.43759 93.59055l1.1245728 -1.124588l-3.0897675 1.124588l3.0897675 1.1245804z" fill-rule="evenodd"/><path fill="#000000" fill-opacity="0.0" d="m257.34122 173.05511l15.5590515 0l0 14.582687l-15.5590515 0z" fill-rule="evenodd"/><path fill="#4a86e8" d="m263.0131 176.86896l0.125 0.375l-3.90625 5.4375l-0.5625 0.578125l2.578125 -0.109375l0.78125 -1.390625l0.671875 0.1875l-0.453125 1.859375l-4.9375 0l-0.125 -0.375l3.890625 -5.40625l0.640625 -0.625l-2.328125 0.078125l-0.578125 1.21875l-0.671875 -0.109375l0.28125 -1.71875l4.59375 0z" fill-rule="nonzero"/><path fill="#4a86e8" d="m264.9915 183.7752q0.640625 0 0.984375 0.375q0.34375 0.375 0.34375 1.078125q0 0.578125 -0.234375 1.078125q-0.234375 0.484375 -0.671875 0.78125q-0.421875 0.296875 -0.984375 0.296875q-0.640625 0 -0.984375 -0.375q-0.328125 -0.390625 -0.328125 -1.09375q0 -0.59375 0.234375 -1.078125q0.234375 -0.484375 0.65625 -0.765625q0.421875 -0.296875 0.984375 -0.296875zm-0.109375 0.390625q-0.28125 0 -0.484375 0.265625q-0.203125 0.25 -0.296875 0.65625q-0.09375 0.390625 -0.09375 0.796875q0 0.59375 0.125 0.875q0.140625 0.265625 0.421875 0.265625q0.28125 0 0.46875 -0.25q0.203125 -0.265625 0.296875 -0.671875q0.09375 -0.40625 0.09375 -0.828125q0 -0.59375 -0.125 -0.84375q-0.125 -0.265625 -0.40625 -0.265625zm3.0065002 1.34375q-0.03125 0.234375 -0.046875 0.328125q-0.0625 0.484375 -0.0625 0.609375q0 0.25 0.078125 0.359375q0.09375 0.109375 0.265625 0.109375q0.203125 0 0.390625 -0.125q0.203125 -0.125 0.34375 -0.296875l0.359375 -2.6875l0.828125 0l-0.40625 2.875q-0.015625 0.109375 0.015625 0.171875q0.03125 0.0625 0.09375 0.0625q0.0625 0 0.125 -0.03125q0.0625 -0.046875 0.171875 -0.140625l0.09375 0.203125q-0.09375 0.125 -0.3125 0.28125q-0.203125 0.140625 -0.484375 0.140625q-0.21875 0 -0.34375 -0.09375q-0.109375 -0.09375 -0.125 -0.25l0 -0.078125q0 -0.046875 0.015625 -0.125l-0.015625 0q-0.46875 0.546875 -1.078125 0.546875q-0.359375 0 -0.609375 -0.1875q-0.234375 -0.1875 -0.234375 -0.609375q0 -0.234375 0.078125 -0.875q0.03125 -0.15625 0.03125 -0.21875l0.171875 -1.125l-0.359375 -0.21875l0.046875 -0.25l1.03125 -0.109375l0.140625 0.078125l-0.203125 1.65625zm3.7182312 0.65625q-0.046875 0.359375 -0.046875 0.4375q0 0.140625 0.046875 0.203125q0.0625 0.0625 0.203125 0.0625q0.125 0 0.28125 -0.0625q0.15625 -0.0625 0.265625 -0.140625l0.078125 0.21875q-0.171875 0.1875 -0.46875 0.34375q-0.296875 0.140625 -0.671875 0.140625q-0.265625 0 -0.421875 -0.125q-0.140625 -0.140625 -0.140625 -0.4375q0 -0.125 0.0625 -0.578125l0.265625 -1.9375l-0.375 0l0.0625 -0.296875l0.375 -0.125q0.1875 -0.171875 0.4375 -0.859375l0.46875 0l-0.109375 0.84375l0.75 0l-0.0625 0.4375l-0.75 0l-0.25 1.875z" fill-rule="nonzero"/><path fill="#000000" fill-opacity="0.0" d="m107.08104 22.747442l29.64 0l0 21.260801l-29.64 0z" fill-rule="evenodd"/><path fill="#000000" fill-opacity="0.0" d="m107.08104 33.377842l4.881653 -0.06277847" fill-rule="evenodd"/><path stroke="#000000" stroke-width="2.0" stroke-linejoin="round" stroke-linecap="butt" d="m107.08104 33.377842l4.881653 -0.06277847" fill-rule="evenodd"/><path fill="#000000" fill-opacity="0.0" d="m136.72104 33.377842l-4.998352 -0.06277847" fill-rule="evenodd"/><path stroke="#000000" stroke-width="2.0" stroke-linejoin="round" stroke-linecap="butt" d="m136.72104 33.377842l-4.998352 -0.06277847" fill-rule="evenodd"/><path fill="#000000" fill-opacity="0.0" d="m111.811554 32.980846l3.1701584 5.984833" fill-rule="evenodd"/><path stroke="#000000" stroke-width="2.0" stroke-linejoin="round" stroke-linecap="butt" d="m111.811554 32.980846l3.1701584 5.984833" fill-rule="evenodd"/><path fill="#000000" fill-opacity="0.0" d="m129.5651 27.996977l-2.9367752 10.6304" fill-rule="evenodd"/><path stroke="#000000" stroke-width="2.0" stroke-linejoin="round" stroke-linecap="butt" d="m129.5651 27.996977l-2.9367752 10.6304" fill-rule="evenodd"/><path fill="#000000" fill-opacity="0.0" d="m129.71906 28.08068l2.236618 5.566311" fill-rule="evenodd"/><path stroke="#000000" stroke-width="2.0" stroke-linejoin="round" stroke-linecap="butt" d="m129.71906 28.08068l2.236618 5.566311" fill-rule="evenodd"/><path fill="#000000" fill-opacity="0.0" d="m117.21509 27.996977l-2.3922043 10.965216" fill-rule="evenodd"/><path stroke="#000000" stroke-width="2.0" stroke-linejoin="round" stroke-linecap="butt" d="m117.21509 27.996977l-2.3922043 10.965216" fill-rule="evenodd"/><path fill="#000000" fill-opacity="0.0" d="m117.36906 28.16264l2.9367752 10.79781" fill-rule="evenodd"/><path stroke="#000000" stroke-width="2.0" stroke-linejoin="round" stroke-linecap="butt" d="m117.36906 28.16264l2.9367752 10.79781" fill-rule="evenodd"/><path fill="#000000" fill-opacity="0.0" d="m123.36942 27.87142l-3.0729141 10.923365" fill-rule="evenodd"/><path stroke="#000000" stroke-width="2.0" stroke-linejoin="round" stroke-linecap="butt" d="m123.36942 27.87142l-3.0729141 10.923365" fill-rule="evenodd"/><path fill="#000000" fill-opacity="0.0" d="m123.69154 27.97894l2.9367752 10.797806" fill-rule="evenodd"/><path stroke="#000000" stroke-width="2.0" stroke-linejoin="round" stroke-linecap="butt" d="m123.69154 27.97894l2.9367752 10.797806" fill-rule="evenodd"/><path fill="#000000" fill-opacity="0.0" d="m115.77566 5.813648l12.251976 0l0 18.267717l-12.251976 0z" fill-rule="evenodd"/><path fill="#000000" d="m117.94753 11.470005q0.21875 0 0.65625 -0.03125q0.484375 -0.03125 0.84375 -0.03125q1.28125 0 1.8125 0.421875q0.546875 0.40625 0.546875 1.25q0 0.78125 -0.4375 1.34375q-0.421875 0.5625 -1.1875 0.796875q0.171875 0.1875 0.34375 0.578125q0.1875 0.375 0.453125 0.984375q0.078125 0.140625 0.109375 0.21875q0.1875 0.421875 0.28125 0.609375q0.109375 0.171875 0.25 0.265625q0.15625 0.078125 0.421875 0.078125l-0.03125 0.453125l-1.546875 0q-0.109375 0 -0.234375 -0.21875q-0.109375 -0.21875 -0.296875 -0.734375l-0.09375 -0.21875q-0.296875 -0.8125 -0.515625 -1.28125q-0.203125 -0.484375 -0.359375 -0.578125l-0.546875 0l-0.359375 0l-0.296875 2.46875l0.84375 0.140625l-0.03125 0.421875l-2.765625 0l0.03125 -0.421875l0.625 -0.140625l0.765625 -5.796875l-0.65625 -0.109375l0.046875 -0.46875l1.328125 0zm0.1875 3.34375q0.171875 0.015625 0.84375 0.015625q0.671875 -0.015625 1.0625 -0.46875q0.40625 -0.453125 0.40625 -1.21875q0 -0.625 -0.3125 -0.90625q-0.3125 -0.296875 -0.96875 -0.296875q-0.34375 0 -0.640625 0.046875l-0.390625 2.828125z" fill-rule="nonzero"/><path fill="#000000" d="m124.608986 17.282505l-0.03125 0.3125l-0.546875 0.078125l-0.5 3.875l1.28125 -0.046875l0.546875 -1.265625l0.46875 0.0625l-0.3125 1.609375l-3.3125 0l0.03125 -0.28125l0.421875 -0.09375l0.515625 -3.859375l-0.4375 -0.078125l0.03125 -0.3125l1.84375 0z" fill-rule="nonzero"/><path fill="#000000" fill-opacity="0.0" d="m179.32927 40.080368l0 34.0176l-55.126396 0l0 -34.0176z" fill-rule="evenodd"/><path fill="#000000" fill-opacity="0.0" d="m151.92361 40.080517l0.32554626 8.504402" fill-rule="evenodd"/><path stroke="#000000" stroke-width="2.0" stroke-linejoin="round" stroke-linecap="butt" d="m151.92361 40.080517l0.32554626 8.504402" fill-rule="evenodd"/><path fill="#000000" fill-opacity="0.0" d="m151.87059 74.09784l0 -8.504402" fill-rule="evenodd"/><path stroke="#000000" stroke-width="2.0" stroke-linejoin="round" stroke-linecap="butt" d="m151.87059 74.09784l0 -8.504402" fill-rule="evenodd"/><path fill="#000000" fill-opacity="0.0" d="m152.24916 48.58492l0 0c3.8043976 0.01620102 6.8569794 1.2977524 6.8191376 2.8628426c-0.037841797 1.5650902 -3.1517944 2.8214111 -6.9562073 2.8064766l0.06575012 -2.834671z" fill-rule="evenodd"/><path fill="#000000" fill-opacity="0.0" d="m152.24916 48.58492l0 0c3.8043976 0.01620102 6.8569794 1.2977524 6.8191376 2.8628426c-0.037841797 1.5650902 -3.1517944 2.8214111 -6.9562073 2.8064766" fill-rule="evenodd"/><path stroke="#000000" stroke-width="2.0" stroke-linejoin="round" stroke-linecap="butt" d="m152.24916 48.58492l0 0c3.8043976 0.01620102 6.8569794 1.2977524 6.8191376 2.8628426c-0.037841797 1.5650902 -3.1517944 2.8214111 -6.9562073 2.8064766" fill-rule="evenodd"/><path fill="#000000" fill-opacity="0.0" d="m152.00766 54.254517l0 0c3.8043976 0.016204834 6.8569794 1.2977562 6.8191376 2.8628464c-0.037841797 1.5650902 -3.1517944 2.8214073 -6.9562073 2.8064728l0.06575012 -2.834671z" fill-rule="evenodd"/><path fill="#000000" fill-opacity="0.0" d="m152.00766 54.254517l0 0c3.8043976 0.016204834 6.8569794 1.2977562 6.8191376 2.8628464c-0.037841797 1.5650902 -3.1517944 2.8214073 -6.9562073 2.8064728" fill-rule="evenodd"/><path stroke="#000000" stroke-width="2.0" stroke-linejoin="round" stroke-linecap="butt" d="m152.00766 54.254517l0 0c3.8043976 0.016204834 6.8569794 1.2977562 6.8191376 2.8628464c-0.037841797 1.5650902 -3.1517944 2.8214073 -6.9562073 2.8064728" fill-rule="evenodd"/><path fill="#000000" fill-opacity="0.0" d="m152.00766 59.924118l0 0c3.8043976 0.01620102 6.8569794 1.2977524 6.8191376 2.8628464c-0.037841797 1.5650864 -3.1517944 2.8214035 -6.9562073 2.8064728l0.06575012 -2.834671z" fill-rule="evenodd"/><path fill="#000000" fill-opacity="0.0" d="m152.00766 59.924118l0 0c3.8043976 0.01620102 6.8569794 1.2977524 6.8191376 2.8628464c-0.037841797 1.5650864 -3.1517944 2.8214035 -6.9562073 2.8064728" fill-rule="evenodd"/><path stroke="#000000" stroke-width="2.0" stroke-linejoin="round" stroke-linecap="butt" d="m152.00766 59.924118l0 0c3.8043976 0.01620102 6.8569794 1.2977524 6.8191376 2.8628464c-0.037841797 1.5650864 -3.1517944 2.8214035 -6.9562073 2.8064728" fill-rule="evenodd"/><path fill="#000000" fill-opacity="0.0" d="m162.12335 47.95538l15.559067 0l0 18.26772l-15.559067 0z" fill-rule="evenodd"/><path fill="#000000" d="m165.74835 53.611736l-0.046875 0.46875l-0.828125 0.109375l-0.75 5.8125l1.90625 -0.0625l0.828125 -1.90625l0.6875 0.09375l-0.453125 2.421875l-4.96875 0l0.046875 -0.421875l0.640625 -0.140625l0.765625 -5.796875l-0.65625 -0.109375l0.046875 -0.46875l2.78125 0z" fill-rule="nonzero"/><path fill="#000000" d="m170.63254 63.424236q-0.15625 0.265625 -0.53125 0.484375q-0.359375 0.21875381 -0.84375 0.21875381q-0.4375 0 -0.734375 -0.18750381q-0.28125 -0.203125 -0.421875 -0.5q-0.125 -0.3125 -0.125 -0.6875q0 -0.625 0.25 -1.125q0.25 -0.515625 0.6875 -0.8125q0.4375 -0.296875 0.96875 -0.296875q0.484375 0 0.71875 0.21875q0.234375 0.21875 0.234375 0.5625q0 0.453125 -0.328125 0.75q-0.328125 0.296875 -0.78125 0.453125q-0.453125 0.140625 -0.859375 0.15625q-0.015625 0.453125 0.140625 0.734375q0.171875 0.265625 0.484375 0.265625q0.546875 0 0.984375 -0.5l0.15625 0.265625zm-0.9375 -2.53125q-0.359375 0 -0.578125 0.453125q-0.203125 0.4375 -0.25 0.96875q0.25 0 0.515625 -0.125q0.265625 -0.125 0.453125 -0.328125q0.1875 -0.21875 0.1875 -0.5q0 -0.21875 -0.09375 -0.34375q-0.078125 -0.125 -0.234375 -0.125zm3.6679535 0.296875q-0.078125 -0.09375 -0.25 -0.1875q-0.15625 -0.09375 -0.390625 -0.09375q-0.25 0 -0.40625 0.109375q-0.140625 0.109375 -0.140625 0.328125q0 0.1875 0.125 0.34375q0.125 0.140625 0.40625 0.34375q0.328125 0.234375 0.484375 0.453125q0.171875 0.21875 0.171875 0.5625q0 0.34375 -0.1875 0.578125q-0.1875 0.234375 -0.5 0.359375q-0.296875 0.12500381 -0.671875 0.12500381q-0.28125 0 -0.578125 -0.0625q-0.296875 -0.062503815 -0.375 -0.14062881l0.125 -0.53125q0.125 0.109375 0.34375 0.21875q0.234375 0.09375 0.46875 0.09375q0.234375 0 0.390625 -0.109375q0.171875 -0.109375 0.171875 -0.328125q0 -0.1875 -0.140625 -0.34375q-0.140625 -0.15625 -0.4375 -0.359375q-0.25 -0.171875 -0.4375 -0.421875q-0.171875 -0.25 -0.171875 -0.59375q0 -0.296875 0.171875 -0.53125q0.171875 -0.234375 0.46875 -0.359375q0.3125 -0.125 0.703125 -0.125q0.21875 0 0.453125 0.046875q0.25 0.03125 0.328125 0.078125l-0.125 0.546875zm1.4678345 2.234375q-0.015625 0.03125 -0.015625 0.078125q0 0.15625 0.125 0.15625q0.046875 0 0.109375 -0.03125q0.078125 -0.03125 0.1875 -0.140625l0.078125 0.203125q-0.109375 0.140625 -0.296875 0.28125q-0.1875 0.14062881 -0.5 0.14062881q-0.234375 0 -0.390625 -0.09375q-0.140625 -0.093753815 -0.140625 -0.2968788q0 -0.03125 0.015625 -0.234375l0.546875 -3.96875l-0.390625 -0.125l0.046875 -0.234375l1.0625 -0.125l0.140625 0.078125l-0.578125 4.3125z" fill-rule="nonzero"/><path fill="#000000" fill-opacity="0.0" d="m141.13547 142.72278l0 -29.64l21.260803 0l0 29.64z" fill-rule="evenodd"/><path fill="#000000" fill-opacity="0.0" d="m151.76587 142.72278l-0.06277466 -4.881653" fill-rule="evenodd"/><path stroke="#000000" stroke-width="2.0" stroke-linejoin="round" stroke-linecap="butt" d="m151.76587 142.72278l-0.06277466 -4.881653" fill-rule="evenodd"/><path fill="#000000" fill-opacity="0.0" d="m151.76587 113.08278l-0.06277466 4.9983444" fill-rule="evenodd"/><path stroke="#000000" stroke-width="2.0" stroke-linejoin="round" stroke-linecap="butt" d="m151.76587 113.08278l-0.06277466 4.9983444" fill-rule="evenodd"/><path fill="#000000" fill-opacity="0.0" d="m151.36887 137.99226l5.984833 -3.170166" fill-rule="evenodd"/><path stroke="#000000" stroke-width="2.0" stroke-linejoin="round" stroke-linecap="butt" d="m151.36887 137.99226l5.984833 -3.170166" fill-rule="evenodd"/><path fill="#000000" fill-opacity="0.0" d="m146.385 120.23872l10.630402 2.9367752" fill-rule="evenodd"/><path stroke="#000000" stroke-width="2.0" stroke-linejoin="round" stroke-linecap="butt" d="m146.385 120.23872l10.630402 2.9367752" fill-rule="evenodd"/><path fill="#000000" fill-opacity="0.0" d="m146.4687 120.084755l5.5663147 -2.2366104" fill-rule="evenodd"/><path stroke="#000000" stroke-width="2.0" stroke-linejoin="round" stroke-linecap="butt" d="m146.4687 120.084755l5.5663147 -2.2366104" fill-rule="evenodd"/><path fill="#000000" fill-opacity="0.0" d="m146.385 132.58873l10.965225 2.3921967" fill-rule="evenodd"/><path stroke="#000000" stroke-width="2.0" stroke-linejoin="round" stroke-linecap="butt" d="m146.385 132.58873l10.965225 2.3921967" fill-rule="evenodd"/><path fill="#000000" fill-opacity="0.0" d="m146.55066 132.43475l10.797806 -2.9367676" fill-rule="evenodd"/><path stroke="#000000" stroke-width="2.0" stroke-linejoin="round" stroke-linecap="butt" d="m146.55066 132.43475l10.797806 -2.9367676" fill-rule="evenodd"/><path fill="#000000" fill-opacity="0.0" d="m146.25945 126.43439l10.92337 3.0729218" fill-rule="evenodd"/><path stroke="#000000" stroke-width="2.0" stroke-linejoin="round" stroke-linecap="butt" d="m146.25945 126.43439l10.92337 3.0729218" fill-rule="evenodd"/><path fill="#000000" fill-opacity="0.0" d="m146.36696 126.11227l10.797806 -2.9367676" fill-rule="evenodd"/><path stroke="#000000" stroke-width="2.0" stroke-linejoin="round" stroke-linecap="butt" d="m146.36696 126.11227l10.797806 -2.9367676" fill-rule="evenodd"/><path fill="#000000" fill-opacity="0.0" d="m162.12335 118.76903l15.559067 0l0 18.267715l-15.559067 0z" fill-rule="evenodd"/><path fill="#000000" d="m164.29523 124.425385q0.21875 0 0.65625 -0.03125q0.484375 -0.03125 0.84375 -0.03125q1.28125 0 1.8125 0.421875q0.546875 0.40625 0.546875 1.25q0 0.78125 -0.4375 1.34375q-0.421875 0.5625 -1.1875 0.796875q0.171875 0.1875 0.34375 0.578125q0.1875 0.375 0.453125 0.984375q0.078125 0.140625 0.109375 0.21875q0.1875 0.421875 0.28125 0.609375q0.109375 0.171875 0.25 0.265625q0.15625 0.078125 0.421875 0.078125l-0.03125 0.453125l-1.546875 0q-0.109375 0 -0.234375 -0.21875q-0.109375 -0.21875 -0.296875 -0.734375l-0.09375 -0.21875q-0.296875 -0.8125 -0.515625 -1.28125q-0.203125 -0.484375 -0.359375 -0.578125l-0.546875 0l-0.359375 0l-0.296875 2.46875l0.84375 0.140625l-0.03125 0.421875l-2.765625 0l0.03125 -0.421875l0.625 -0.140625l0.765625 -5.796875l-0.65625 -0.109375l0.046875 -0.46875l1.328125 0zm0.1875 3.34375q0.171875 0.015625 0.84375 0.015625q0.671875 -0.015625 1.0625 -0.46875q0.40625 -0.453125 0.40625 -1.21875q0 -0.625 -0.3125 -0.90625q-0.3125 -0.296875 -0.96875 -0.296875q-0.34375 0 -0.640625 0.046875l-0.390625 2.828125z" fill-rule="nonzero"/><path fill="#000000" d="m171.42543 134.23788q-0.15625 0.265625 -0.53125 0.484375q-0.359375 0.21875 -0.84375 0.21875q-0.4375 0 -0.734375 -0.1875q-0.28125 -0.203125 -0.421875 -0.5q-0.125 -0.3125 -0.125 -0.6875q0 -0.625 0.25 -1.125q0.25 -0.515625 0.6875 -0.8125q0.4375 -0.296875 0.96875 -0.296875q0.484375 0 0.71875 0.21875q0.234375 0.21875 0.234375 0.5625q0 0.453125 -0.328125 0.75q-0.328125 0.296875 -0.78125 0.453125q-0.453125 0.140625 -0.859375 0.15625q-0.015625 0.453125 0.140625 0.734375q0.171875 0.265625 0.484375 0.265625q0.546875 0 0.984375 -0.5l0.15625 0.265625zm-0.9375 -2.53125q-0.359375 0 -0.578125 0.453125q-0.203125 0.4375 -0.25 0.96875q0.25 0 0.515625 -0.125q0.265625 -0.125 0.453125 -0.328125q0.1875 -0.21875 0.1875 -0.5q0 -0.21875 -0.09375 -0.34375q-0.078125 -0.125 -0.234375 -0.125zm3.6679535 0.296875q-0.078125 -0.09375 -0.25 -0.1875q-0.15625 -0.09375 -0.390625 -0.09375q-0.25 0 -0.40625 0.109375q-0.140625 0.109375 -0.140625 0.328125q0 0.1875 0.125 0.34375q0.125 0.140625 0.40625 0.34375q0.328125 0.234375 0.484375 0.453125q0.171875 0.21875 0.171875 0.5625q0 0.34375 -0.1875 0.578125q-0.1875 0.234375 -0.5 0.359375q-0.296875 0.125 -0.671875 0.125q-0.28125 0 -0.578125 -0.0625q-0.296875 -0.0625 -0.375 -0.140625l0.125 -0.53125q0.125 0.109375 0.34375 0.21875q0.234375 0.09375 0.46875 0.09375q0.234375 0 0.390625 -0.109375q0.171875 -0.109375 0.171875 -0.328125q0 -0.1875 -0.140625 -0.34375q-0.140625 -0.15625 -0.4375 -0.359375q-0.25 -0.171875 -0.4375 -0.421875q-0.171875 -0.25 -0.171875 -0.59375q0 -0.296875 0.171875 -0.53125q0.171875 -0.234375 0.46875 -0.359375q0.3125 -0.125 0.703125 -0.125q0.21875 0 0.453125 0.046875q0.25 0.03125 0.328125 0.078125l-0.125 0.546875zm1.7022095 0.21875q0.125 -0.34375 0.40625 -0.609375q0.296875 -0.28125 0.65625 -0.28125q0.125 0 0.203125 0.0625l-0.171875 0.890625q-0.046875 -0.03125 -0.140625 -0.0625q-0.078125 -0.03125 -0.1875 -0.03125q-0.21875 0 -0.4375 0.109375q-0.203125 0.09375 -0.3125 0.265625l-0.296875 2.296875l-0.8125 0l0.390625 -2.953125l-0.3125 -0.171875l0.03125 -0.25l0.890625 -0.15625l0.15625 0.09375l-0.03125 0.5625l-0.03125 0.234375z" fill-rule="nonzero"/><path fill="#000000" fill-opacity="0.0" d="m136.72104 33.377842l15.055115 0l0 6.70866" fill-rule="evenodd"/><path stroke="#000000" stroke-width="1.0" stroke-linejoin="round" stroke-linecap="butt" d="m136.72104 33.377842l15.055115 0l0 6.70866" fill-rule="evenodd"/><path fill="#000000" fill-opacity="0.0" d="m136.72104 33.377842l63.08661 0l0 45.38583" fill-rule="evenodd"/><path stroke="#000000" stroke-width="1.0" stroke-linejoin="round" stroke-linecap="butt" d="m136.72104 33.377842l63.08661 0l0 45.38583" fill-rule="evenodd"/><path fill="#000000" fill-opacity="0.0" d="m151.76587 142.72278l0 25.000015l48.031494 0l0 -59.299232" fill-rule="evenodd"/><path stroke="#000000" stroke-width="1.0" stroke-linejoin="round" stroke-linecap="butt" d="m151.76587 142.72278l0 25.000015l48.031494 0l0 -59.299232" fill-rule="evenodd"/><path fill="#000000" fill-opacity="0.0" d="m107.08104 33.377842l-5.978508 0l0 0.062992096l-5.989998 0" fill-rule="evenodd"/><path stroke="#000000" stroke-width="1.0" stroke-linejoin="round" stroke-linecap="butt" d="m107.08104 33.377842l-5.978508 0l0 0.062992096l-5.989998 0" fill-rule="evenodd"/><path fill="#000000" fill-opacity="0.0" d="m61.10635 33.37788l-25.000072 0l0 134.34508l115.64574 0l0 -24.990753" fill-rule="evenodd"/><path stroke="#000000" stroke-width="1.0" stroke-linejoin="round" stroke-linecap="butt" d="m61.10635 33.37788l-25.000072 0l0 134.34508l115.64574 0l0 -24.990753" fill-rule="evenodd"/><path fill="#000000" fill-opacity="0.0" d="m151.76587 113.08278l0 -2.9514847l0.06298828 0l0 -2.9382782" fill-rule="evenodd"/><path stroke="#000000" stroke-width="1.0" stroke-linejoin="round" stroke-linecap="butt" d="m151.76587 113.08278l0 -2.9514847l0.06298828 0l0 -2.9382782" fill-rule="evenodd"/><path fill="#000000" fill-opacity="0.0" d="m151.7664 79.99875l0 -2.9504166l0.06298828 0l0 -2.9393463" fill-rule="evenodd"/><path stroke="#000000" stroke-width="1.0" stroke-linejoin="round" stroke-linecap="butt" d="m151.7664 79.99875l0 -2.9504166l0.06298828 0l0 -2.9393463" fill-rule="evenodd"/><path fill="#000000" fill-opacity="0.0" d="m199.80392 78.77044l0 -45.44882l50.015747 0" fill-rule="evenodd"/><path stroke="#000000" stroke-width="1.0" stroke-linejoin="round" stroke-linecap="butt" d="m199.80392 78.77044l0 -45.44882l46.225754 0" fill-rule="evenodd"/><path stroke="#000000" stroke-width="1.0" stroke-linecap="butt" d="m249.31967 33.32162c0 0.9085083 -0.7364807 1.6450005 -1.644989 1.6450005c-0.9085083 0 -1.6450043 -0.73649216 -1.6450043 -1.6450005c0 -0.9085083 0.736496 -1.6449986 1.6450043 -1.6449986c0.9085083 0 1.644989 0.73649025 1.644989 1.6449986z" fill-rule="nonzero"/><path fill="#000000" fill-opacity="0.0" d="m199.80392 108.41044l0 59.589363l47.181107 0l0 0.0011901855" fill-rule="evenodd"/><path stroke="#000000" stroke-width="1.0" stroke-linejoin="round" stroke-linecap="butt" d="m199.80392 108.410446l0 59.589355l43.391098 0" fill-rule="evenodd"/><path stroke="#000000" stroke-width="1.0" stroke-linecap="butt" d="m246.48503 168.00084c-2.89917E-4 0.9085083 -0.7370148 1.6447601 -1.6455231 1.6444702c-0.9085083 -2.746582E-4 -1.6447601 -0.7369995 -1.6444702 -1.6455078c2.746582E-4 -0.9085083 0.7369995 -1.6447754 1.6455078 -1.6444855c0.9085083 2.89917E-4 1.6447754 0.7370148 1.6444855 1.6455231z" fill-rule="nonzero"/></g></svg>