<svg version="1.1" viewBox="0.0 0.0 262.23622047244095 156.39632545931758" fill="none" stroke="none" stroke-linecap="square" stroke-miterlimit="10" xmlns:xlink="http://www.w3.org/1999/xlink" xmlns="http://www.w3.org/2000/svg"><clipPath id="p.0"><path d="m0 0l262.2362 0l0 156.39633l-262.2362 0l0 -156.39633z" clip-rule="nonzero"/></clipPath><g clip-path="url(#p.0)"><path fill="#000000" fill-opacity="0.0" d="m0 0l262.2362 0l0 156.39633l-262.2362 0z" fill-rule="evenodd"/><path fill="#efefef" d="m149.18376 60.87407l43.08661 31.211624l-43.08661 30.678139z" fill-rule="evenodd"/><path stroke="#000000" stroke-width="1.0" stroke-linejoin="round" stroke-linecap="butt" d="m149.18376 60.87407l43.08661 31.211624l-43.08661 30.678139z" fill-rule="evenodd"/><path fill="#000000" fill-opacity="0.0" d="m119.24147 83.237335l-27.181099 0l0 -32.000004l27.181099 0z" fill-rule="evenodd"/><path fill="#000000" fill-opacity="0.0" d="m119.241554 67.142845l-11.622047 0" fill-rule="evenodd"/><path stroke="#000000" stroke-width="2.0" stroke-linejoin="round" stroke-linecap="butt" d="m119.241554 67.142845l-11.622047 0" fill-rule="evenodd"/><path fill="#000000" fill-opacity="0.0" d="m92.076195 67.142845l10.803154 0" fill-rule="evenodd"/><path stroke="#000000" stroke-width="2.0" stroke-linejoin="round" stroke-linecap="butt" d="m92.076195 67.142845l10.803154 0" fill-rule="evenodd"/><path fill="#000000" fill-opacity="0.0" d="m108.14838 75.237335l0 -16.000004" fill-rule="evenodd"/><path stroke="#000000" stroke-width="2.0" stroke-linejoin="round" stroke-linecap="butt" d="m108.14838 75.237335l0 -16.000004" fill-rule="evenodd"/><path fill="#000000" fill-opacity="0.0" d="m103.11688 75.237335l0 -16.000004" fill-rule="evenodd"/><path stroke="#000000" stroke-width="2.0" stroke-linejoin="round" stroke-linecap="butt" d="m103.11688 75.237335l0 -16.000004" fill-rule="evenodd"/><path fill="#000000" fill-opacity="0.0" d="m149.71165 35.10226l29.64 0l0 21.2608l-29.64 0z" fill-rule="evenodd"/><path fill="#000000" fill-opacity="0.0" d="m149.71165 45.73266l4.881653 -0.06277847" fill-rule="evenodd"/><path stroke="#000000" stroke-width="2.0" stroke-linejoin="round" stroke-linecap="butt" d="m149.71165 45.73266l4.881653 -0.06277847" fill-rule="evenodd"/><path fill="#000000" fill-opacity="0.0" d="m179.35165 45.73266l-4.998352 -0.06277847" fill-rule="evenodd"/><path stroke="#000000" stroke-width="2.0" stroke-linejoin="round" stroke-linecap="butt" d="m179.35165 45.73266l-4.998352 -0.06277847" fill-rule="evenodd"/><path fill="#000000" fill-opacity="0.0" d="m154.44217 45.335667l3.170166 5.984829" fill-rule="evenodd"/><path stroke="#000000" stroke-width="2.0" stroke-linejoin="round" stroke-linecap="butt" d="m154.44217 45.335667l3.170166 5.984829" fill-rule="evenodd"/><path fill="#000000" fill-opacity="0.0" d="m172.1957 40.351795l-2.9367676 10.630398" fill-rule="evenodd"/><path stroke="#000000" stroke-width="2.0" stroke-linejoin="round" stroke-linecap="butt" d="m172.1957 40.351795l-2.9367676 10.630398" fill-rule="evenodd"/><path fill="#000000" fill-opacity="0.0" d="m172.34967 40.435497l2.236618 5.566311" fill-rule="evenodd"/><path stroke="#000000" stroke-width="2.0" stroke-linejoin="round" stroke-linecap="butt" d="m172.34967 40.435497l2.236618 5.566311" fill-rule="evenodd"/><path fill="#000000" fill-opacity="0.0" d="m159.8457 40.351795l-2.392212 10.965214" fill-rule="evenodd"/><path stroke="#000000" stroke-width="2.0" stroke-linejoin="round" stroke-linecap="butt" d="m159.8457 40.351795l-2.392212 10.965214" fill-rule="evenodd"/><path fill="#000000" fill-opacity="0.0" d="m159.99966 40.517456l2.9367828 10.79781" fill-rule="evenodd"/><path stroke="#000000" stroke-width="2.0" stroke-linejoin="round" stroke-linecap="butt" d="m159.99966 40.517456l2.9367828 10.79781" fill-rule="evenodd"/><path fill="#000000" fill-opacity="0.0" d="m166.00003 40.22624l-3.0729065 10.923363" fill-rule="evenodd"/><path stroke="#000000" stroke-width="2.0" stroke-linejoin="round" stroke-linecap="butt" d="m166.00003 40.22624l-3.0729065 10.923363" fill-rule="evenodd"/><path fill="#000000" fill-opacity="0.0" d="m166.32216 40.333755l2.9367676 10.79781" fill-rule="evenodd"/><path stroke="#000000" stroke-width="2.0" stroke-linejoin="round" stroke-linecap="butt" d="m166.32216 40.333755l2.9367676 10.79781" fill-rule="evenodd"/><path fill="#000000" fill-opacity="0.0" d="m48.43467 65.45025l29.64 0l0 21.260796l-29.64 0z" fill-rule="evenodd"/><path fill="#000000" fill-opacity="0.0" d="m48.43467 76.08064l4.881653 -0.06277466" fill-rule="evenodd"/><path stroke="#000000" stroke-width="2.0" stroke-linejoin="round" stroke-linecap="butt" d="m48.43467 76.08064l4.881653 -0.06277466" fill-rule="evenodd"/><path fill="#000000" fill-opacity="0.0" d="m78.07467 76.08064l-4.9983444 -0.06277466" fill-rule="evenodd"/><path stroke="#000000" stroke-width="2.0" stroke-linejoin="round" stroke-linecap="butt" d="m78.07467 76.08064l-4.9983444 -0.06277466" fill-rule="evenodd"/><path fill="#000000" fill-opacity="0.0" d="m53.165188 75.683655l3.1701584 5.984825" fill-rule="evenodd"/><path stroke="#000000" stroke-width="2.0" stroke-linejoin="round" stroke-linecap="butt" d="m53.165188 75.683655l3.1701584 5.984825" fill-rule="evenodd"/><path fill="#000000" fill-opacity="0.0" d="m70.91872 70.699776l-2.9367676 10.630402" fill-rule="evenodd"/><path stroke="#000000" stroke-width="2.0" stroke-linejoin="round" stroke-linecap="butt" d="m70.91872 70.699776l-2.9367676 10.630402" fill-rule="evenodd"/><path fill="#000000" fill-opacity="0.0" d="m71.072685 70.783485l2.236618 5.566307" fill-rule="evenodd"/><path stroke="#000000" stroke-width="2.0" stroke-linejoin="round" stroke-linecap="butt" d="m71.072685 70.783485l2.236618 5.566307" fill-rule="evenodd"/><path fill="#000000" fill-opacity="0.0" d="m58.568718 70.699776l-2.3922043 10.965218" fill-rule="evenodd"/><path stroke="#000000" stroke-width="2.0" stroke-linejoin="round" stroke-linecap="butt" d="m58.568718 70.699776l-2.3922043 10.965218" fill-rule="evenodd"/><path fill="#000000" fill-opacity="0.0" d="m58.72269 70.86544l2.9367714 10.797813" fill-rule="evenodd"/><path stroke="#000000" stroke-width="2.0" stroke-linejoin="round" stroke-linecap="butt" d="m58.72269 70.86544l2.9367714 10.797813" fill-rule="evenodd"/><path fill="#000000" fill-opacity="0.0" d="m64.72305 70.57423l-3.0729103 10.923363" fill-rule="evenodd"/><path stroke="#000000" stroke-width="2.0" stroke-linejoin="round" stroke-linecap="butt" d="m64.72305 70.57423l-3.0729103 10.923363" fill-rule="evenodd"/><path fill="#000000" fill-opacity="0.0" d="m65.04517 70.68174l2.9367752 10.797813" fill-rule="evenodd"/><path stroke="#000000" stroke-width="2.0" stroke-linejoin="round" stroke-linecap="butt" d="m65.04517 70.68174l2.9367752 10.797813" fill-rule="evenodd"/><path fill="#000000" fill-opacity="0.0" d="m192.99353 20.004364l12.251968 0l0 18.267715l-12.251968 0z" fill-rule="evenodd"/><path fill="#000000" d="m197.6029 26.25447q-0.28125 -0.125 -0.65625 -0.125q-0.75 0 -1.25 0.53125q-0.5 0.53125 -0.734375 1.34375q-0.234375 0.796875 -0.21875 1.625q0.078125 2.40625 1.453125 2.40625q0.296875 0 0.59375 -0.078125q0.3125 -0.09375 0.515625 -0.296875q0.140625 -0.25 0.328125 -0.953125l0.765625 0l-0.1875 1.375q-0.890625 0.59375 -2.234375 0.59375q-0.9375 0 -1.53125 -0.40625q-0.59375 -0.421875 -0.875 -1.09375q-0.265625 -0.671875 -0.265625 -1.5q0 -1.25 0.484375 -2.171875q0.484375 -0.9375 1.34375 -1.421875q0.875 -0.5 2.0 -0.5q0.53125 0 0.84375 0.046875q0.3125 0.046875 0.5 0.109375q0.203125 0.046875 0.28125 0.0625l0.171875 0.046875l-0.28125 1.765625l-0.921875 0l-0.125 -1.359375z" fill-rule="nonzero"/><path fill="#000000" d="m199.73616 35.738846l0.34375 -2.421875l-0.140625 0.046875q-0.34375 0.09375 -0.640625 0.15625l-0.0625 -0.34375q0.3125 -0.0625 0.703125 -0.25q0.40625 -0.1875 0.671875 -0.359375l0.390625 0.09375l-0.421875 3.078125l0.671875 0.078125l-0.03125 0.28125l-2.15625 0l0.03125 -0.28125l0.640625 -0.078125z" fill-rule="nonzero"/><path fill="#000000" fill-opacity="0.0" d="m90.83173 75.85037l29.64 0l0 21.260796l-29.64 0z" fill-rule="evenodd"/><path fill="#000000" fill-opacity="0.0" d="m90.83173 86.48077l4.881653 -0.06277466" fill-rule="evenodd"/><path stroke="#000000" stroke-width="2.0" stroke-linejoin="round" stroke-linecap="butt" d="m90.83173 86.48077l4.881653 -0.06277466" fill-rule="evenodd"/><path fill="#000000" fill-opacity="0.0" d="m120.47173 86.48077l-4.9983444 -0.06277466" fill-rule="evenodd"/><path stroke="#000000" stroke-width="2.0" stroke-linejoin="round" stroke-linecap="butt" d="m120.47173 86.48077l-4.9983444 -0.06277466" fill-rule="evenodd"/><path fill="#000000" fill-opacity="0.0" d="m95.562256 86.08378l3.1701584 5.984825" fill-rule="evenodd"/><path stroke="#000000" stroke-width="2.0" stroke-linejoin="round" stroke-linecap="butt" d="m95.562256 86.08378l3.1701584 5.984825" fill-rule="evenodd"/><path fill="#000000" fill-opacity="0.0" d="m113.31579 81.09991l-2.9367752 10.630394" fill-rule="evenodd"/><path stroke="#000000" stroke-width="2.0" stroke-linejoin="round" stroke-linecap="butt" d="m113.31579 81.09991l-2.9367752 10.630394" fill-rule="evenodd"/><path fill="#000000" fill-opacity="0.0" d="m113.46976 81.18361l2.2366104 5.566307" fill-rule="evenodd"/><path stroke="#000000" stroke-width="2.0" stroke-linejoin="round" stroke-linecap="butt" d="m113.46976 81.18361l2.2366104 5.566307" fill-rule="evenodd"/><path fill="#000000" fill-opacity="0.0" d="m100.96578 81.09991l-2.3922043 10.96521" fill-rule="evenodd"/><path stroke="#000000" stroke-width="2.0" stroke-linejoin="round" stroke-linecap="butt" d="m100.96578 81.09991l-2.3922043 10.96521" fill-rule="evenodd"/><path fill="#000000" fill-opacity="0.0" d="m101.11975 81.26557l2.9367752 10.797806" fill-rule="evenodd"/><path stroke="#000000" stroke-width="2.0" stroke-linejoin="round" stroke-linecap="butt" d="m101.11975 81.26557l2.9367752 10.797806" fill-rule="evenodd"/><path fill="#000000" fill-opacity="0.0" d="m107.12012 80.97435l-3.0729065 10.923363" fill-rule="evenodd"/><path stroke="#000000" stroke-width="2.0" stroke-linejoin="round" stroke-linecap="butt" d="m107.12012 80.97435l-3.0729065 10.923363" fill-rule="evenodd"/><path fill="#000000" fill-opacity="0.0" d="m107.44224 81.08186l2.9367752 10.797813" fill-rule="evenodd"/><path stroke="#000000" stroke-width="2.0" stroke-linejoin="round" stroke-linecap="butt" d="m107.44224 81.08186l2.9367752 10.797813" fill-rule="evenodd"/><path fill="#000000" fill-opacity="0.0" d="m213.01714 61.731865l-27.181091 0l0 -31.999998l27.181091 0z" fill-rule="evenodd"/><path fill="#000000" fill-opacity="0.0" d="m213.01723 45.63738l-11.622055 0" fill-rule="evenodd"/><path stroke="#000000" stroke-width="2.0" stroke-linejoin="round" stroke-linecap="butt" d="m213.01723 45.63738l-11.622055 0" fill-rule="evenodd"/><path fill="#000000" fill-opacity="0.0" d="m185.85187 45.63738l10.803146 0" fill-rule="evenodd"/><path stroke="#000000" stroke-width="2.0" stroke-linejoin="round" stroke-linecap="butt" d="m185.85187 45.63738l10.803146 0" fill-rule="evenodd"/><path fill="#000000" fill-opacity="0.0" d="m201.92404 53.731865l0 -16.0" fill-rule="evenodd"/><path stroke="#000000" stroke-width="2.0" stroke-linejoin="round" stroke-linecap="butt" d="m201.92404 53.731865l0 -16.0" fill-rule="evenodd"/><path fill="#000000" fill-opacity="0.0" d="m196.89255 53.731865l0 -16.0" fill-rule="evenodd"/><path stroke="#000000" stroke-width="2.0" stroke-linejoin="round" stroke-linecap="butt" d="m196.89255 53.731865l0 -16.0" fill-rule="evenodd"/><path fill="#000000" fill-opacity="0.0" d="m149.18376 71.12079l8.818893 0l0 9.921257l-8.818893 0z" fill-rule="evenodd"/><path fill="#000000" d="m155.49393 76.994545l-3.796875 0l0 -0.875l3.796875 0l0 0.875z" fill-rule="nonzero"/><path fill="#000000" fill-opacity="0.0" d="m149.19426 100.41737l8.818893 0l0 9.921265l-8.818893 0z" fill-rule="evenodd"/><path fill="#000000" d="m153.19263 105.463005l-0.015625 -0.734375l0 -1.03125l0.859375 0l0 1.03125l-0.03125 0.734375l0.71875 -0.046875l1.015625 0l0 0.875l-1.015625 0l-0.71875 -0.03125l0.03125 0.734375l0 1.078125l-0.859375 0l0 -1.078125l0.015625 -0.734375l-0.84375 0.03125l-0.875 0l0 -0.875l0.875 0l0.84375 0.046875z" fill-rule="nonzero"/><path fill="#000000" fill-opacity="0.0" d="m119.24147 67.237335l7.8188705 0l0 8.850388l22.133888 0" fill-rule="evenodd"/><path stroke="#000000" stroke-width="1.0" stroke-linejoin="round" stroke-linecap="butt" d="m119.24147 67.237335l7.8188705 0l0 8.850388l22.133888 0" fill-rule="evenodd"/><path fill="#000000" fill-opacity="0.0" d="m120.47173 86.48077l6.588806 0l0 -10.3937l22.135597 0" fill-rule="evenodd"/><path stroke="#000000" stroke-width="1.0" stroke-linejoin="round" stroke-linecap="butt" d="m120.47173 86.48077l6.588806 0l0 -10.3937l22.135597 0" fill-rule="evenodd"/><path fill="#000000" fill-opacity="0.0" d="m149.71165 45.73266l-11.464905 0l0 30.362206l10.929474 0" fill-rule="evenodd"/><path stroke="#000000" stroke-width="1.0" stroke-linejoin="round" stroke-linecap="butt" d="m149.71165 45.73266l-11.464905 0l0 30.362206l10.929474 0" fill-rule="evenodd"/><path fill="#000000" fill-opacity="0.0" d="m78.07467 76.08064l7.5474396 0l0 -8.850388l6.4368134 0" fill-rule="evenodd"/><path stroke="#000000" stroke-width="1.0" stroke-linejoin="round" stroke-linecap="butt" d="m78.07467 76.08064l7.5474396 0l0 -8.850388l6.4368134 0" fill-rule="evenodd"/><path fill="#000000" fill-opacity="0.0" d="m78.07467 76.08064l7.5474167 0l0 10.393707l5.2084885 0" fill-rule="evenodd"/><path stroke="#000000" stroke-width="1.0" stroke-linejoin="round" stroke-linecap="butt" d="m78.07467 76.08064l7.5474167 0l0 10.393707l5.2084885 0" fill-rule="evenodd"/><path fill="#000000" fill-opacity="0.0" d="m192.27037 92.08569l34.955444 0l0 -46.3622l-14.199539 0" fill-rule="evenodd"/><path stroke="#000000" stroke-width="1.0" stroke-linejoin="round" stroke-linecap="butt" d="m192.27037 92.08569l34.955444 0l0 -46.3622l-14.199539 0" fill-rule="evenodd"/><path fill="#000000" fill-opacity="0.0" d="m185.83604 45.731865l-3.242218 0l0 0.062992096l-3.2459717 0" fill-rule="evenodd"/><path stroke="#000000" stroke-width="1.0" stroke-linejoin="round" stroke-linecap="butt" d="m185.83604 45.731865l-3.242218 0l0 0.062992096l-3.2459717 0" fill-rule="evenodd"/><path fill="#000000" fill-opacity="0.0" d="m99.52503 38.851757l12.251968 0l0 18.26772l-12.251968 0z" fill-rule="evenodd"/><path fill="#000000" d="m104.13441 45.101864q-0.28125 -0.125 -0.65625 -0.125q-0.75 0 -1.25 0.53125q-0.5 0.53125 -0.734375 1.34375q-0.234375 0.796875 -0.21875 1.625q0.078125 2.40625 1.453125 2.40625q0.296875 0 0.59375 -0.078125q0.3125 -0.09375 0.515625 -0.296875q0.140625 -0.25 0.328125 -0.953125l0.765625 0l-0.1875 1.375q-0.890625 0.59375 -2.234375 0.59375q-0.9375 0 -1.53125 -0.40625q-0.59375 -0.421875 -0.875 -1.09375q-0.265625 -0.671875 -0.265625 -1.5q0 -1.25 0.484375 -2.171875q0.484375 -0.9375 1.34375 -1.421875q0.875 -0.5 2.0 -0.5q0.53125 0 0.84375 0.046875q0.3125 0.046875 0.5 0.109375q0.203125 0.046875 0.28125 0.0625l0.171875 0.046875l-0.28125 1.765625l-0.921875 0l-0.125 -1.359375z" fill-rule="nonzero"/><path fill="#000000" d="m105.47079 54.664364q0.609375 -0.3125 1.09375 -0.71875q0.484375 -0.40625 0.765625 -0.859375q0.296875 -0.453125 0.296875 -0.875q0 -0.3125 -0.171875 -0.5q-0.15625 -0.1875 -0.4375 -0.1875q-0.328125 0 -0.640625 0.140625q-0.296875 0.140625 -0.453125 0.296875l-0.1875 -0.328125q0.109375 -0.125 0.328125 -0.265625q0.21875 -0.140625 0.53125 -0.25q0.3125 -0.109375 0.671875 -0.109375q0.453125 0 0.71875 0.1875q0.28125 0.1875 0.40625 0.453125q0.125 0.25 0.125 0.515625q0 0.421875 -0.34375 0.875q-0.328125 0.453125 -0.828125 0.859375q-0.5 0.390625 -1.03125 0.640625l1.78125 -0.125l0.328125 -0.578125l0.375 0.125l-0.28125 0.984375l-2.953125 0l-0.09375 -0.28125z" fill-rule="nonzero"/><path fill="#000000" fill-opacity="0.0" d="m157.96329 20.917751l13.13385 0l0 17.354328l-13.13385 0z" fill-rule="evenodd"/><path fill="#000000" d="m160.13516 26.117414q0.21875 0 0.65625 -0.03125q0.484375 -0.03125 0.84375 -0.03125q1.28125 0 1.8125 0.421875q0.546875 0.40625 0.546875 1.25q0 0.78125 -0.4375 1.34375q-0.421875 0.5625 -1.1875 0.796875q0.171875 0.1875 0.34375 0.578125q0.1875 0.375 0.453125 0.984375q0.078125 0.140625 0.109375 0.21875q0.1875 0.4218769 0.28125 0.6093769q0.109375 0.171875 0.25 0.265625q0.15625 0.078125 0.421875 0.078125l-0.03125 0.453125l-1.546875 0q-0.109375 0 -0.234375 -0.21875q-0.109375 -0.21875 -0.296875 -0.734375l-0.09375 -0.2187519q-0.296875 -0.8125 -0.515625 -1.28125q-0.203125 -0.484375 -0.359375 -0.578125l-0.546875 0l-0.359375 0l-0.296875 2.468752l0.84375 0.140625l-0.03125 0.421875l-2.765625 0l0.03125 -0.421875l0.625 -0.140625l0.765625 -5.796877l-0.65625 -0.109375l0.046875 -0.46875l1.328125 0zm0.1875 3.34375q0.171875 0.015625 0.84375 0.015625q0.671875 -0.015625 1.0625 -0.46875q0.40625 -0.453125 0.40625 -1.21875q0 -0.625 -0.3125 -0.90625q-0.3125 -0.296875 -0.96875 -0.296875q-0.34375 0 -0.640625 0.046875l-0.390625 2.828125z" fill-rule="nonzero"/><path fill="#000000" d="m165.31224 36.19554l0.34375 -2.421875l-0.140625 0.046875q-0.34375 0.09375 -0.640625 0.15625l-0.0625 -0.34375q0.3125 -0.0625 0.703125 -0.25q0.40625 -0.1875 0.671875 -0.359375l0.390625 0.09375l-0.421875 3.078125l0.671875 0.078125l-0.03125 0.28125l-2.15625 0l0.03125 -0.28125l0.640625 -0.078125z" fill-rule="nonzero"/><path fill="#000000" fill-opacity="0.0" d="m101.05033 92.3409l12.251968 0l0 13.795273l-12.251968 0z" fill-rule="evenodd"/><path fill="#000000" d="m103.222206 95.76103q0.21875 0 0.65625 -0.03125q0.484375 -0.03125 0.84375 -0.03125q1.28125 0 1.8125 0.421875q0.546875 0.40625 0.546875 1.25q0 0.78125 -0.4375 1.34375q-0.421875 0.5625 -1.1875 0.796875q0.171875 0.1875 0.34375 0.578125q0.1875 0.375 0.453125 0.984375q0.078125 0.140625 0.109375 0.21875q0.1875 0.421875 0.28125 0.609375q0.109375 0.171875 0.25 0.265625q0.15625 0.078125 0.421875 0.078125l-0.03125 0.453125l-1.546875 0q-0.109375 0 -0.234375 -0.21875q-0.109375 -0.21875 -0.296875 -0.734375l-0.09375 -0.21875q-0.296875 -0.8125 -0.515625 -1.28125q-0.203125 -0.484375 -0.359375 -0.578125l-0.546875 0l-0.359375 0l-0.296875 2.46875l0.84375 0.140625l-0.03125 0.421875l-2.765625 0l0.03125 -0.421875l0.625 -0.140625l0.765625 -5.796875l-0.65625 -0.109375l0.046875 -0.46875l1.328125 0zm0.1875 3.34375q0.171875 0.015625 0.84375 0.015625q0.671875 -0.015625 1.0625 -0.46875q0.40625 -0.453125 0.40625 -1.21875q0 -0.625 -0.3125 -0.90625q-0.3125 -0.296875 -0.96875 -0.296875q-0.34375 0 -0.640625 0.046875l-0.390625 2.828125z" fill-rule="nonzero"/><path fill="#000000" d="m107.60241 105.91728q0.609375 -0.3125 1.09375 -0.71875q0.484375 -0.40625 0.765625 -0.859375q0.296875 -0.453125 0.296875 -0.875q0 -0.3125 -0.171875 -0.5q-0.15625 -0.1875 -0.4375 -0.1875q-0.328125 0 -0.640625 0.140625q-0.296875 0.140625 -0.453125 0.296875l-0.1875 -0.328125q0.109375 -0.125 0.328125 -0.265625q0.21875 -0.140625 0.53125 -0.25q0.3125 -0.109375 0.671875 -0.109375q0.453125 0 0.71875 0.1875q0.28125 0.1875 0.40625 0.453125q0.125 0.25 0.125 0.515625q0 0.421875 -0.34375 0.875q-0.328125 0.453125 -0.828125 0.859375q-0.5 0.390625 -1.03125 0.640625l1.78125 -0.125l0.328125 -0.578125l0.375 0.125l-0.28125 0.984375l-2.953125 0l-0.09375 -0.28125z" fill-rule="nonzero"/><path fill="#000000" fill-opacity="0.0" d="m58.512276 54.015434l12.251968 0l0 13.79528l-12.251968 0z" fill-rule="evenodd"/><path fill="#000000" d="m60.68415 57.435574q0.21875 0 0.65625 -0.03125q0.484375 -0.03125 0.84375 -0.03125q1.28125 0 1.8125 0.421875q0.546875 0.40625 0.546875 1.25q0 0.78125 -0.4375 1.34375q-0.421875 0.5625 -1.1875 0.796875q0.171875 0.1875 0.34375 0.578125q0.1875 0.375 0.453125 0.984375q0.078125 0.140625 0.109375 0.21875q0.1875 0.421875 0.28125 0.609375q0.109375 0.171875 0.25 0.265625q0.15625 0.078125 0.421875 0.078125l-0.03125 0.4531212l-1.546875 0q-0.109375 0 -0.234375 -0.21875q-0.109375 -0.21874619 -0.296875 -0.7343712l-0.09375 -0.21875q-0.296875 -0.8125 -0.515625 -1.28125q-0.203125 -0.484375 -0.359375 -0.578125l-0.546875 0l-0.359375 0l-0.296875 2.46875l0.84375 0.140625l-0.03125 0.4218712l-2.765625 0l0.03125 -0.4218712l0.625 -0.140625l0.765625 -5.796875l-0.65625 -0.109375l0.046875 -0.46875l1.328125 0zm0.1875 3.34375q0.171875 0.015625 0.84375 0.015625q0.671875 -0.015625 1.0625 -0.46875q0.40625 -0.453125 0.40625 -1.21875q0 -0.625 -0.3125 -0.90625q-0.3125 -0.296875 -0.96875 -0.296875q-0.34375 0 -0.640625 0.046875l-0.390625 2.828125z" fill-rule="nonzero"/><path fill="#000000" d="m65.57998 68.87307q-0.234375 0 -0.65625 -0.078125l0.109375 -0.40625q0.171875 0.046875 0.390625 0.046875q0.484375 0 0.84375 -0.171875q0.359375 -0.171875 0.546875 -0.4375q0.1875 -0.28125 0.1875 -0.59375q0 -0.328125 -0.234375 -0.546875q-0.21875 -0.21875 -0.671875 -0.1875l-0.390625 0.109375l0.0625 -0.40625q0.546875 -0.125 0.890625 -0.421875q0.359375 -0.3125 0.359375 -0.703125q0 -0.25 -0.125 -0.421875q-0.125 -0.171875 -0.40625 -0.171875q-0.296875 0 -0.546875 0.09375q-0.234375 0.09375 -0.453125 0.28125l-0.15625 -0.328125q0.1875 -0.203125 0.59375 -0.390625q0.40625 -0.18749619 0.859375 -0.18749619q0.5 0 0.78125 0.2656212q0.296875 0.25 0.296875 0.671875q0 0.390625 -0.34375 0.765625q-0.328125 0.375 -0.765625 0.5625q0.046875 -0.015625 0.125 -0.015625q0.46875 0 0.71875 0.28125q0.265625 0.28125 0.265625 0.6875q0 0.46875 -0.328125 0.859375q-0.3125 0.390625 -0.84375 0.609375q-0.53125 0.234375 -1.109375 0.234375z" fill-rule="nonzero"/><path fill="#000000" fill-opacity="0.0" d="m48.43467 76.08064l-18.740158 0" fill-rule="evenodd"/><path stroke="#000000" stroke-width="1.0" stroke-linejoin="round" stroke-linecap="butt" d="m48.43467 76.08065l-14.950157 0" fill-rule="evenodd"/><path stroke="#000000" stroke-width="1.0" stroke-linecap="butt" d="m30.194513 76.08065c0 -0.9085083 0.73649025 -1.6450043 1.6449986 -1.6450043c0.9085083 0 1.6450005 0.736496 1.6450005 1.6450043c0 0.9085083 -0.73649216 1.6449966 -1.6450005 1.6449966c-0.9085083 0 -1.6449986 -0.73648834 -1.6449986 -1.6449966z" fill-rule="nonzero"/><path fill="#000000" fill-opacity="0.0" d="m149.19426 105.378006l-10.947617 0l0 8.881889l-109.713806 0" fill-rule="evenodd"/><path stroke="#000000" stroke-width="1.0" stroke-linejoin="round" stroke-linecap="butt" d="m149.19426 105.378006l-10.947617 0l0 8.881889l-105.9238 0" fill-rule="evenodd"/><path stroke="#000000" stroke-width="1.0" stroke-linecap="butt" d="m29.032839 114.259895c0 -0.9085083 0.73649216 -1.6450043 1.6450005 -1.6450043c0.9085083 0 1.6449986 0.736496 1.6449986 1.6450043c0 0.9085083 -0.73649025 1.6449966 -1.6449986 1.6449966c-0.9085083 0 -1.6450005 -0.73648834 -1.6450005 -1.6449966z" fill-rule="nonzero"/><path fill="#000000" fill-opacity="0.0" d="m192.27037 92.08569l53.76378 0.5669327" fill-rule="evenodd"/><path stroke="#000000" stroke-width="1.0" stroke-linejoin="round" stroke-linecap="butt" d="m192.27039 92.08569l49.974 0.5269623" fill-rule="evenodd"/><path stroke="#000000" stroke-width="1.0" stroke-linecap="butt" d="m245.5342 92.64735c-0.0095825195 0.9084625 -0.75379944 1.637146 -1.662262 1.6275635c-0.9084625 -0.00957489 -1.637146 -0.7537918 -1.6275635 -1.6622543c0.0095825195 -0.9084549 0.75379944 -1.6371384 1.662262 -1.6275635c0.90844727 0.0095825195 1.6371307 0.75379944 1.6275635 1.6622543z" fill-rule="nonzero"/><path fill="#000000" fill-opacity="0.0" d="m9.997841 69.18341l12.251968 0l0 13.79528l-12.251968 0z" fill-rule="evenodd"/><path fill="#000000" d="m10.638466 75.24418q-0.046875 -0.25 -0.203125 -0.28125q-0.109375 0 -0.1875 0.046875q-0.0625 0.046875 -0.078125 0.0625l-0.125 -0.3125q0.109375 -0.140625 0.40625 -0.328125q0.296875 -0.1875 0.671875 -0.1875q0.359375 0 0.53125 0.15625q0.1875 0.15625 0.234375 0.46875l0.390625 2.75l0.140625 0.984375l0.375 -0.53125q0.421875 -0.625 0.625 -1.171875q0.21875 -0.5625 0.25 -1.1875q0.015625 -0.1875 -0.0625 -0.484375q-0.0625 -0.234375 -0.0625 -0.40625q0 -0.25 0.15625 -0.40625q0.15625 -0.171875 0.421875 -0.171875q0.375 0 0.546875 0.28125q0.171875 0.265625 0.171875 0.6875q0 1.15625 -1.8125 3.453125l-0.703125 0.90625l-0.828125 0.0625l-0.328125 -1.703125l-0.53125 -2.6875z" fill-rule="nonzero"/><path fill="#000000" d="m15.770103 79.29105q0.0625 -0.375 0.25 -0.671875q0.1875 -0.296875 0.46875 -0.46875q0.28125 -0.171875 0.640625 -0.171875q0.328125 0 0.515625 0.0625l-0.171875 0.5q-0.171875 -0.140625 -0.40625 -0.140625q-0.234375 0 -0.34375 0.1875q-0.09375 0.171875 -0.15625 0.53125l-0.0625 0.453125l0.6875 0l-0.078125 0.46875l-0.671875 0l-0.328125 2.75q-0.109375 0.765625 -0.46875 1.28125q-0.34375 0.515625 -0.921875 0.53125q-0.140625 0 -0.296875 -0.015625q-0.171875 -0.015625 -0.265625 -0.046875l0.171875 -0.515625q0.078125 0.03125 0.234375 0.078125q0.140625 0.046875 0.234375 0.046875q0.171875 0 0.265625 -0.171875q0.109375 -0.15625 0.140625 -0.484375l0.4375 -3.453125l-0.40625 0l0.0625 -0.28125l0.421875 -0.171875l0.046875 -0.296875zm2.6799927 0.625q0.171875 -0.171875 0.40625 -0.28125q0.234375 -0.125 0.5 -0.125q0.515625 0 0.78125 0.34375q0.265625 0.34375 0.265625 0.96875q0 0.59375 -0.25 1.125q-0.25 0.515625 -0.71875 0.84375q-0.453125 0.3125 -1.0625 0.3125q-0.171875 0 -0.375 -0.046875q-0.203125 -0.046875 -0.359375 -0.09375l-0.375 0.125l0.59375 -4.59375l-0.3125 -0.109375l0.046875 -0.25l0.953125 -0.109375l0.140625 0.078125l-0.234375 1.8125zm-0.359375 2.734375q0.125 0.0625 0.359375 0.0625q0.375 0 0.609375 -0.265625q0.25 -0.28125 0.359375 -0.703125q0.125 -0.4375 0.125 -0.90625q0 -0.375 -0.140625 -0.609375q-0.125 -0.25 -0.359375 -0.25q-0.1875 0 -0.359375 0.125q-0.171875 0.109375 -0.296875 0.265625l-0.296875 2.28125z" fill-rule="nonzero"/><path fill="#000000" fill-opacity="0.0" d="m9.997373 106.136536l18.740158 0l0 13.795273l-18.740158 0z" fill-rule="evenodd"/><path fill="#000000" d="m12.825498 109.55667l-0.046875 0.46875l-0.765625 0.109375l0.546875 4.125l0.109375 1.15625l0.453125 -1.15625l1.875 -4.125l-0.765625 -0.109375l0.03125 -0.46875l2.250001 0l-0.0625 0.46875l-0.65625095 0.09375l-2.96875 6.421875l-1.125 0.015625l-1.046875 -6.421875l-0.640625 -0.125l0.0625 -0.453125l2.75 0z" fill-rule="nonzero"/><path fill="#000000" d="m17.050413 115.36917q0.15625 0 0.453125 -0.015625q0.3125 -0.03125 0.5625 -0.03125q0.84375 0 1.203125 0.28125q0.359375 0.28125 0.375 0.84375q0 0.515625 -0.296875 0.890625q-0.296875 0.375 -0.796875 0.53125q0.109375 0.125 0.234375 0.375q0.125 0.25 0.296875 0.65625q0.046875 0.109375 0.0625 0.15625q0.140625 0.28125 0.203125 0.40625q0.078125 0.109375 0.171875 0.171875q0.09375 0.0625 0.265625 0.0625l-0.015625 0.296875l-1.03125 0q-0.078125 0 -0.15625 -0.140625q-0.078125 -0.15625 -0.203125 -0.5l-0.046875 -0.140625q-0.21875 -0.53125 -0.359375 -0.84375q-0.140625 -0.328125 -0.234375 -0.390625l-0.359375 0l-0.234375 0l-0.203125 1.640625l0.5625 0.09375l-0.03125 0.28125l-1.843751 0l0.015625 -0.28125l0.42187595 -0.09375l0.515625 -3.859375l-0.4375 -0.078125l0.03125 -0.3125l0.875 0zm0.140625 2.21875q0.109375 0.015625 0.5625 0.015625q0.4375 -0.015625 0.703125 -0.3125q0.265625 -0.296875 0.265625 -0.8125q0 -0.40625 -0.203125 -0.59375q-0.203125 -0.203125 -0.65625 -0.203125q-0.21875 0 -0.421875 0.03125l-0.25 1.875zm6.4564667 -2.21875l-0.0625 1.0625l-0.515625 0l-0.125 -0.65625l-1.203125 -0.078125l-0.21875 1.65625l1.40625 -0.09375l-0.078125 0.59375l-1.390625 -0.0625l-0.21875 1.796875l1.5625 -0.078125l0.328125 -0.8125l0.515625 0.046875l-0.234375 1.25l-3.5625 0l0.03125 -0.28125l0.46875 -0.078125l0.515625 -3.875l-0.4375 -0.078125l0.03125 -0.3125l3.1875 0zm3.9741364 0l-0.109375 1.09375l-0.546875 0l-0.078125 -0.6875l-1.265625 -0.0625l-0.234375 1.6875l1.5 -0.0625l-0.078125 0.59375l-1.46875 -0.09375l-0.21875 1.78125l0.796875 0.09375l-0.03125 0.28125l-2.109375 0l0.03125 -0.28125l0.421875 -0.09375l0.515625 -3.859375l-0.4375 -0.078125l0.03125 -0.3125l3.28125 0z" fill-rule="nonzero"/><path fill="#000000" fill-opacity="0.0" d="m248.08446 85.47213l12.251968 0l0 13.795273l-12.251968 0z" fill-rule="evenodd"/><path fill="#000000" d="m248.72508 91.53289q-0.046875 -0.25 -0.203125 -0.28125q-0.109375 0 -0.1875 0.046875q-0.0625 0.046875 -0.078125 0.0625l-0.125 -0.3125q0.109375 -0.140625 0.40625 -0.328125q0.296875 -0.1875 0.671875 -0.1875q0.359375 0 0.53125 0.15625q0.1875 0.15625 0.234375 0.46875l0.390625 2.75l0.140625 0.984375l0.375 -0.53125q0.421875 -0.625 0.625 -1.171875q0.21875 -0.5625 0.25 -1.1875q0.015625 -0.1875 -0.0625 -0.484375q-0.0625 -0.234375 -0.0625 -0.40625q0 -0.25 0.15625 -0.40625q0.15625 -0.171875 0.421875 -0.171875q0.375 0 0.546875 0.28125q0.171875 0.265625 0.171875 0.6875q0 1.15625 -1.8125 3.453125l-0.703125 0.90625l-0.828125 0.0625l-0.328125 -1.703125l-0.53125 -2.6875z" fill-rule="nonzero"/><path fill="#000000" d="m255.43484 96.72039q-0.171875 -0.21875 -0.3125 -0.34375q-0.125 -0.140625 -0.21875 -0.140625q-0.234375 0 -0.4375 0.21875q-0.1875 0.203125 -0.3125 0.59375q-0.125 0.375 -0.125 0.84375q0 0.515625 0.140625 0.765625q0.15625 0.234375 0.46875 0.234375q0.265625 0 0.4375 -0.09375q0.1875 -0.109375 0.359375 -0.296875l0.171875 0.28125q-0.15625 0.234375 -0.5 0.421875q-0.328125 0.1875 -0.78125 0.1875q-0.53125 0 -0.84375 -0.375q-0.296875 -0.375 -0.296875 -1.0625q0 -0.53125 0.21875 -1.015625q0.21875 -0.5 0.640625 -0.8125q0.4375 -0.328125 1.03125 -0.328125q0.1875 0 0.390625 0.03125q0.21875 0.03125 0.34375 0.09375l-0.203125 0.8125l-0.171875 -0.015625z" fill-rule="nonzero"/><path fill="#000000" fill-opacity="0.0" d="m145.12602 22.210026l76.0 0l0 34.14173l-76.0 0z" fill-rule="evenodd"/><path stroke="#4a86e8" stroke-width="1.0" stroke-linejoin="round" stroke-linecap="butt" stroke-dasharray="4.0,3.0" d="m145.12602 22.210026l76.0 0l0 34.14173l-76.0 0z" fill-rule="evenodd"/><path fill="#000000" fill-opacity="0.0" d="m45.687695 38.85307l85.732285 0l0 69.543304l-85.732285 0z" fill-rule="evenodd"/><path stroke="#ff9900" stroke-width="1.0" stroke-linejoin="round" stroke-linecap="butt" stroke-dasharray="4.0,3.0" d="m45.687695 38.85307l85.732285 0l0 69.543304l-85.732285 0z" fill-rule="evenodd"/><path fill="#000000" fill-opacity="0.0" d="m70.764595 22.24029l12.251968 0l0 13.795275l-12.251968 0z" fill-rule="evenodd"/><path fill="#ff9900" d="m76.43647 25.660427l0.125 0.375l-3.90625 5.4375l-0.5625 0.578125l2.578125 -0.109375l0.78125 -1.390625l0.671875 0.1875l-0.453125 1.859375l-4.9375 0l-0.125 -0.375l3.890625 -5.40625l0.640625 -0.625l-2.328125 0.078125l-0.578125 1.21875l-0.671875 -0.109375l0.28125 -1.71875l4.59375 0z" fill-rule="nonzero"/><path fill="#ff9900" d="m76.430504 35.816677q0.609375 -0.3125 1.09375 -0.71875q0.484375 -0.40625 0.765625 -0.859375q0.296875 -0.453125 0.296875 -0.875q0 -0.3125 -0.171875 -0.5q-0.15625 -0.1875 -0.4375 -0.1875q-0.328125 0 -0.640625 0.140625q-0.296875 0.140625 -0.453125 0.296875l-0.1875 -0.328125q0.109375 -0.125 0.328125 -0.265625q0.21875 -0.140625 0.53125 -0.25q0.3125 -0.109375 0.671875 -0.109375q0.453125 0 0.71875 0.1875q0.28125 0.1875 0.40625 0.453125q0.125 0.25 0.125 0.515625q0 0.421875 -0.34375 0.875q-0.328125 0.453125 -0.828125 0.859375q-0.5 0.390625 -1.03125 0.640625l1.78125 -0.125l0.328125 -0.578125l0.375 0.125l-0.28125 0.984375l-2.953125 0l-0.09375 -0.28125z" fill-rule="nonzero"/><path fill="#000000" fill-opacity="0.0" d="m166.6357 5.1918807l12.251968 0l0 13.795275l-12.251968 0z" fill-rule="evenodd"/><path fill="#4a86e8" d="m172.30757 8.612018l0.125 0.375l-3.90625 5.4375l-0.5625 0.578125l2.578125 -0.109375l0.78125 -1.390625l0.671875 0.1875l-0.453125 1.859375l-4.9375 0l-0.125 -0.375l3.890625 -5.40625l0.640625 -0.625l-2.328125 0.078125l-0.578125 1.21875l-0.671875 -0.109375l0.28125 -1.71875l4.59375 0z" fill-rule="nonzero"/><path fill="#4a86e8" d="m173.09848 18.690144l0.34375 -2.421875l-0.140625 0.046875q-0.34375 0.09375 -0.640625 0.15625l-0.0625 -0.34375q0.3125 -0.0625 0.703125 -0.25000095q0.40625 -0.1875 0.671875 -0.359375l0.390625 0.09375l-0.421875 3.078126l0.671875 0.078125l-0.03125 0.28125l-2.15625 0l0.03125 -0.28125l0.640625 -0.078125z" fill-rule="nonzero"/><path fill="#000000" fill-opacity="0.0" d="m124.20473 140.57742l21.259842 0l0 13.007874l-21.259842 0z" fill-rule="evenodd"/><path fill="#000000" fill-opacity="0.0" d="m126.902885 143.72351l16.000008 0" fill-rule="evenodd"/><path stroke="#000000" stroke-width="2.0" stroke-linejoin="round" stroke-linecap="butt" d="m126.902885 143.72351l16.000008 0" fill-rule="evenodd"/><path fill="#000000" fill-opacity="0.0" d="m134.9029 140.57742l0 3.1496124" fill-rule="evenodd"/><path stroke="#000000" stroke-width="2.0" stroke-linejoin="round" stroke-linecap="butt" d="m134.9029 140.57742l0 3.1496124" fill-rule="evenodd"/><path fill="#000000" fill-opacity="0.0" d="m134.19423 151.72351l8.0 -8.0" fill-rule="evenodd"/><path stroke="#000000" stroke-width="2.0" stroke-linejoin="round" stroke-linecap="butt" d="m134.19423 151.72351l8.0 -8.0" fill-rule="evenodd"/><path fill="#000000" fill-opacity="0.0" d="m135.61154 151.72351l-7.9999924 -8.0" fill-rule="evenodd"/><path stroke="#000000" stroke-width="2.0" stroke-linejoin="round" stroke-linecap="butt" d="m135.61154 151.72351l-7.9999924 -8.0" fill-rule="evenodd"/><path fill="#000000" fill-opacity="0.0" d="m134.83464 140.57742l-122.01575 0" fill-rule="evenodd"/><path stroke="#000000" stroke-width="1.0" stroke-linejoin="round" stroke-linecap="butt" d="m134.83464 140.57742l-122.01575 0" fill-rule="evenodd"/><path fill="#000000" fill-opacity="0.0" d="m134.83464 140.57742l113.921265 0" fill-rule="evenodd"/><path stroke="#000000" stroke-width="1.0" stroke-linejoin="round" stroke-linecap="butt" d="m134.83464 140.57742l113.921265 0" fill-rule="evenodd"/></g></svg>